<?xml version="1.0" encoding="UTF-8" standalone="no"?>
<!DOCTYPE svg PUBLIC "-//W3C//DTD SVG 1.1//EN" "http://www.w3.org/Graphics/SVG/1.1/DTD/svg11.dtd">
<svg width="100%" height="100%" viewBox="0 0 126 108" version="1.1" xmlns="http://www.w3.org/2000/svg" xmlns:xlink="http://www.w3.org/1999/xlink" xml:space="preserve" xmlns:serif="http://www.serif.com/" style="fill-rule:evenodd;clip-rule:evenodd;stroke-linejoin:round;stroke-miterlimit:2;">
    <g id="Page-1">
        <g id="logo">
            <g id="Shape">
                <path d="M85.012,37.8L113.16,29.16L96.488,39.758L85.012,37.8Z" style="fill:#ca2317;"/>
                <path d="M102.158,58.86L96.488,39.758L113.16,29.16L108.165,46.305L102.158,58.86Z" style="fill:#e84f83;"/>
                <path d="M121.395,23.962L118.29,29.16L108.165,46.305L113.16,29.16L121.395,23.962Z" style="fill:#ca2317;"/>
                <path d="M122.408,27.338L114.692,35.252L118.29,29.16L122.408,27.338Z" style="fill:#e54011;"/>
                <path d="M86.7,32.468L109.931,30.151L93.76,35.115L86.7,32.468Z" style="fill:#e54011;"/>
                <path d="M87.562,45.505L96.488,39.758L102.158,58.86L99.188,64.935L87.562,45.505Z" style="fill:#ca2317;"/>
                <path d="M74.28,68.175L70.028,16.2L99.188,64.935L74.28,68.175Z" style="fill:#b7dff2;"/>
                <path d="M62.198,81.473L74.28,68.175L99.188,64.935L62.198,81.473Z" style="fill:#e54011;"/>
                <path d="M3.473,107.595L62.198,81.473L74.28,68.175L55.11,66.218L3.473,107.595Z" style="fill:#ffce33;"/>
                <path d="M5.7,86.265L35.82,81.675L45.255,74.115L40.633,72.103L5.7,86.265Z" style="fill:#d6b12d;"/>
                <path d="M16.568,61.628L45.255,74.115L55.11,66.218L16.568,61.628Z" style="fill:#ffde85;"/>
                <path d="M67.851,35.035L64.23,35.613L55.11,66.218L64.97,59.963L67.851,35.035Z" style="fill:#009ec6;"/>
                <path d="M73.182,54.754L64.97,59.963L70.028,16.2L73.182,54.754Z" style="fill:#5eafce;"/>
                <path d="M42.082,39.15L67.851,35.035L69.03,24.832L42.082,39.15Z" style="fill:#045972;"/>
                <path d="M39.315,15.255L61.698,28.728L69.03,24.832L69.194,23.416L39.315,15.255Z" style="fill:#5a8591;"/>
                <path d="M43.703,0.54L64.11,22.027L69.194,23.416L70.028,16.2L43.703,0.54Z" style="fill:#009ec6;"/>
                <path d="M55.11,66.218L73.181,54.755L74.28,68.175L55.11,66.218Z" style="fill:#f39804;"/>
            </g>
        </g>
    </g>
</svg>
