<?xml version="1.0" encoding="UTF-8" standalone="no"?>
<!DOCTYPE svg PUBLIC "-//W3C//DTD SVG 1.1//EN" "http://www.w3.org/Graphics/SVG/1.1/DTD/svg11.dtd">
<svg width="100%" height="100%" viewBox="0 0 29 26" version="1.1" xmlns="http://www.w3.org/2000/svg" xmlns:xlink="http://www.w3.org/1999/xlink" xml:space="preserve" xmlns:serif="http://www.serif.com/" style="fill-rule:evenodd;clip-rule:evenodd;stroke-linejoin:round;stroke-miterlimit:2;">
    <g id="phoenix">
        <path d="M22.584,15.071L13.856,18.943L-0,25.056L7.629,18.992L0.525,20.064L8.767,16.749L3.09,14.297L12.184,15.372L14.334,8.215L9.11,9.036L13.736,6.598L8.457,3.444L14.302,5.023L9.492,-0L15.704,3.665L19.841,10.524L21.947,9.179L19.239,8.721L21.304,8.092L19.638,7.473L25.117,6.931L25.881,6.698L27.824,5.482L27.092,6.698L28.063,6.272L26.242,8.123L24.702,10.711L23.285,13.65L22.584,15.071Z" style="fill:#fffff5;fill-opacity:0.86;"/>
    </g>
</svg>
